<?xml version="1.0" standalone="no"?>
<!DOCTYPE svg PUBLIC "-//W3C//DTD SVG 20010904//EN"
 "http://www.w3.org/TR/2001/REC-SVG-20010904/DTD/svg10.dtd">
<svg version="1.0" xmlns="http://www.w3.org/2000/svg"
 width="375.000000pt" height="589.000000pt" viewBox="0 0 375.000000 589.000000"
 preserveAspectRatio="xMidYMid meet">

<g transform="translate(0.000000,589.000000) scale(0.100000,-0.100000)"
fill="#000000" stroke="none">
<path d="M0 2945 l0 -2945 1875 0 1875 0 0 543 -1 542 -400 240 c-368 220
-615 384 -795 525 -244 192 -532 508 -638 701 -66 121 -145 364 -190 589 -87
435 -83 852 19 1998 36 403 65 737 65 743 0 5 -344 9 -905 9 l-905 0 0 -2945z"/>
</g>
</svg>
